<svg width="148" height="24" viewBox="0 0 148 24" fill="none" xmlns="http://www.w3.org/2000/svg">
<path d="M5.35326 11.8141L2.6766 14.4908L0 11.8141L2.6766 9.1375L5.35326 11.8141ZM11.8372 5.3302L16.4059 9.8989L19.0826 7.2223L11.8372 0L4.5918 7.2454L7.26846 9.922L11.8372 5.3302ZM20.9747 9.1375L18.2981 11.8141L20.9747 14.4908L23.6513 11.8141L20.9747 9.1375ZM11.8372 18.298L7.26846 13.7293L4.5918 16.3829L11.8372 23.6283L19.0826 16.3829L16.4059 13.7062L11.8372 18.298ZM11.8372 14.4677L14.5138 11.791L11.8372 9.1144L9.16055 11.791L11.8372 14.4677ZM39.9881 14.7446V14.6984C39.9881 12.9678 39.0651 12.091 37.5652 11.5142C38.4882 11.0065 39.2727 10.1758 39.2727 8.7221V8.676C39.2727 6.6454 37.6344 5.3302 35.004 5.3302H28.9815V18.275H35.1424C38.0498 18.298 39.9881 17.0982 39.9881 14.7446ZM36.4346 9.2067C36.4346 10.1758 35.65 10.5681 34.381 10.5681H31.7504V7.8222H34.5656C35.7654 7.8222 36.4346 8.3068 36.4346 9.1606V9.2067ZM37.1499 14.3754C37.1499 15.3445 36.3884 15.7829 35.1424 15.7829H31.7504V12.9448H35.0501C36.5038 12.9448 37.1499 13.4755 37.1499 14.3523V14.3754ZM45.9643 18.298V5.3302H43.1031V18.275H45.9643V18.298ZM61.2627 18.298V5.3302H58.4476V13.314L52.379 5.3302H49.7485V18.275H52.5636V10.0605L58.8399 18.298H61.2627ZM77.0687 18.298L71.5077 5.261H68.8773L63.3163 18.298H66.2237L67.4005 15.3907H72.8692L74.0459 18.298H77.0687ZM71.877 12.8756H68.4388L70.1694 8.676L71.877 12.8756ZM90.6365 18.298V5.3302H87.8214V13.314L81.7528 5.3302H79.1223V18.275H81.9374V10.0605L88.2137 18.298H90.6365ZM105.358 16.1983L103.535 14.3754C102.52 15.2984 101.62 15.8983 100.12 15.8983C97.9049 15.8983 96.3589 14.0523 96.3589 11.8372V11.768C96.3589 9.5528 97.928 7.7299 100.12 7.7299C101.412 7.7299 102.428 8.2837 103.443 9.1836L105.266 7.0839C104.066 5.9071 102.612 5.0764 100.166 5.0764C96.1974 5.0764 93.4054 8.0991 93.4054 11.768V11.8141C93.4054 15.5291 96.2436 18.4826 100.051 18.4826C102.543 18.5057 104.02 17.6289 105.358 16.1983ZM117.518 18.298V15.7599H110.481V13.0371H116.595V10.4989H110.481V7.8684H117.426V5.3302H107.665V18.275H117.518V18.298ZM120.91 18.298V16.3598H122.618V18.298H120.91ZM135.909 12.7602C135.909 16.5444 133.74 18.5057 130.509 18.5057C127.302 18.5057 125.11 16.5444 125.11 12.8756V5.3302H126.563V12.7833C126.563 15.5753 128.04 17.1443 130.532 17.1443C132.932 17.1443 134.432 15.6906 134.432 12.8756V5.3302H135.885V12.7602H135.909ZM143.592 11.0988C146.477 11.7218 147.815 12.7833 147.815 14.7907C147.815 17.029 145.969 18.4826 143.385 18.4826C141.331 18.4826 139.647 17.7904 138.078 16.4059L138.978 15.3214C140.339 16.5444 141.631 17.1443 143.431 17.1443C145.161 17.1443 146.315 16.2444 146.315 14.9292C146.315 13.7062 145.669 13.014 142.946 12.4371C139.97 11.7911 138.585 10.8219 138.585 8.676C138.585 6.5993 140.385 5.1225 142.854 5.1225C144.746 5.1225 146.084 5.6532 147.4 6.7147L146.546 7.8453C145.346 6.8531 144.146 6.4378 142.808 6.4378C141.123 6.4378 140.039 7.3608 140.039 8.5376C140.085 9.8066 140.731 10.4989 143.592 11.0988Z" fill="#32313A"/>
</svg>
